<?xml version="1.0" encoding="utf-8"?>

<!-- Uploaded to: SVG Repo, www.svgrepo.com, Generator: SVG Repo Mixer Tools -->
<svg width="800px" height="800px" viewBox="17 50 140 100" fill="none" xmlns="http://www.w3.org/2000/svg" xmlns:xlink="http://www.w3.org/1999/xlink">
<path fill-rule="evenodd" clip-rule="evenodd" d="M68.931 66.0393C61.7368 58.7264 53.98 51.6243 51.4023 52.0967C48.2901 52.667 44.8932 67.3291 42.6567 79.0813C34.7219 86.3087 29.9319 95.6832 29.9319 105.927C29.9319 128.787 53.7862 147.318 83.212 147.318C112.638 147.318 136.492 128.787 136.492 105.927C136.492 95.5631 131.589 86.089 123.487 78.828C121.25 67.1195 117.88 52.663 114.79 52.0967C112.217 51.6252 104.484 58.6998 97.3014 65.9983C92.8135 65.0448 88.0893 64.5357 83.212 64.5357C78.2653 64.5357 73.476 65.0594 68.931 66.0393Z" fill="#CCCCCC"/>
<g style="mix-blend-mode:multiply">
<path fill-rule="evenodd" clip-rule="evenodd" d="M68.9397 66.0375C66.7937 71.9181 65.1247 78.911 68.8034 79.9621C73.6706 81.3527 75.4173 76.2423 75.9886 73.5782C75.6207 76.7112 75.6659 83.575 83.212 83.2156C90.0195 82.8914 90.4966 77.5934 90.1621 74.4171C90.9154 77.2818 92.8585 81.5494 97.6206 79.9621C101.553 78.6512 99.7184 71.7207 97.3713 65.9273C97.348 65.951 97.3247 65.9747 97.3014 65.9983C92.8135 65.0448 88.0893 64.5357 83.212 64.5357C78.2685 64.5357 73.4821 65.0588 68.9397 66.0375Z" fill="#C4C4C4" fill-opacity="0.6"/>
</g>
<path d="M132.684 110.246C139.01 107.984 140.106 107.605 146.881 106.398" stroke="#333333" stroke-width="1.76133" stroke-linecap="round" stroke-linejoin="round"/>
<path d="M131.68 123.015C138.263 124.752 141.006 125.913 147.875 126.546" stroke="#333333" stroke-width="1.76133" stroke-linecap="round" stroke-linejoin="round"/>
<path d="M132.48 116.826C138.531 117.183 140.541 116.469 146.583 115.712" stroke="#333333" stroke-width="1.76133" stroke-linecap="round" stroke-linejoin="round"/>
<path d="M35.3164 110.246C28.9899 107.984 27.8935 107.605 21.119 106.398" stroke="#333333" stroke-width="1.76133" stroke-linecap="round" stroke-linejoin="round"/>
<path d="M36.32 123.015C29.7369 124.752 26.9939 125.913 20.1248 126.546" stroke="#333333" stroke-width="1.76133" stroke-linecap="round" stroke-linejoin="round"/>
<path d="M35.5198 116.826C29.469 117.183 27.4593 116.469 21.417 115.712" stroke="#333333" stroke-width="1.76133" stroke-linecap="round" stroke-linejoin="round"/>
<circle cx="60.4371" cy="101.17" r="10.6903" fill="white"/>
<mask id="mask0_36_462" style="mask-type:alpha" maskUnits="userSpaceOnUse" x="49" y="90" width="23" height="22">
<circle cx="60.4371" cy="101.17" r="10.6903" fill="white"/>
</mask>
<g mask="url(#mask0_36_462)">
<circle cx="62.2963" cy="98.381" r="9.76068" fill="#333333"/>
</g>
<circle cx="63.813" cy="95.2497" r="1.98149" fill="white"/>
<circle r="10.6903" transform="matrix(-1 0 0 1 107.846 101.17)" fill="white"/>
<mask id="mask1_36_462" style="mask-type:alpha" maskUnits="userSpaceOnUse" x="97" y="90" width="22" height="22">
<circle r="10.6903" transform="matrix(-1 0 0 1 107.846 101.17)" fill="white"/>
</mask>
<g mask="url(#mask1_36_462)">
<circle r="9.76068" transform="matrix(-1 0 0 1 105.987 98.381)" fill="#333333"/>
</g>
<circle r="1.98149" transform="matrix(-1 0 0 1 104.47 95.2497)" fill="white"/>
<ellipse cx="83.5" cy="117.5" rx="18.5" ry="13.5" fill="white" fill-opacity="0.25"/>
<path d="M88.0068 112.336C88.0068 114.038 86.0353 115.418 83.6035 115.418C81.1716 115.418 79.2001 114.038 79.2001 112.336C79.2001 110.634 81.1716 108.813 83.6035 108.813C86.0353 108.813 88.0068 110.634 88.0068 112.336Z" fill="#333333"/>
<path d="M83.6035 111.015V117.18C83.6035 119.125 82.0263 120.702 80.0808 120.702H78.98C77.6425 120.702 76.5582 119.618 76.5582 118.281V118.281" stroke="#323232" stroke-width="1.32099" stroke-linecap="round" stroke-linejoin="round"/>
<path d="M83.6035 111.015V117.18C83.6035 119.125 85.1806 120.702 87.1261 120.702H88.2269C89.5645 120.702 90.6488 119.618 90.6488 118.281V118.281" stroke="#323232" stroke-width="1.32099" stroke-linecap="round" stroke-linejoin="round"/>
<path d="M46.9868 75.5758C48.2869 69.1415 49.5457 64.8142 52.152 58.159C52.3508 57.6513 52.9625 57.4463 53.4254 57.7344C58.4748 60.8776 61.2523 63.2855 65.082 67.4084C65.5255 67.8859 65.3064 68.6621 64.6805 68.8438C58.0554 70.767 53.9387 72.0465 48.46 76.4423C47.8055 76.9674 46.8206 76.3983 46.9868 75.5758Z" fill="#B0B0B0"/>
<path d="M118.319 74.9496C117.655 68.3536 117.024 64.432 114.284 57.682C114.08 57.1791 113.469 56.9834 113.011 57.2747C108.433 60.1866 105.82 62.3483 101.533 66.3567C101.035 66.8219 101.234 67.6521 101.887 67.8468C108.391 69.7877 111.469 71.1688 116.845 75.7092C117.456 76.2249 118.399 75.7448 118.319 74.9496Z" fill="#B0B0B0"/>
<circle r="1.82108" transform="matrix(-0.993492 0.113903 0.113903 0.993492 96.7632 52.2536)" fill="#FFC547"/>
<circle r="1.82108" transform="matrix(-0.993492 0.113903 0.113903 0.993492 85.9827 46.1575)" fill="#FFC547"/>
<circle r="1.82108" transform="matrix(-0.993492 0.113903 0.113903 0.993492 73.1549 48.8502)" fill="#FFC547"/>
<path d="M96.6645 56.9443L94.2448 68.6171C94.1301 69.1701 93.5431 69.4852 93.0157 69.2835C86.3485 66.7346 81.7755 65.823 74.5975 66.6923C74.0412 66.7596 73.5461 66.3235 73.5572 65.7633L73.8045 53.1836C73.8207 52.362 74.831 51.9805 75.3862 52.5863L79.4389 57.009C79.8636 57.4724 80.619 57.3764 80.9142 56.8214L84.5478 49.9899C84.9297 49.2719 85.9898 49.3767 86.2237 50.1556L88.7168 58.457C88.8852 59.018 89.5319 59.2763 90.0405 58.9858L95.3213 55.9689C96.0023 55.5799 96.8237 56.1764 96.6645 56.9443Z" fill="#FFC547"/>
<ellipse cx="56" cy="124" rx="6" ry="2" fill="#FFA787"/>
<ellipse cx="112" cy="124" rx="6" ry="2" fill="#FFA787"/>
<circle cx="55.7892" cy="99.3105" r="19.9862" stroke="#323232" stroke-width="1.85918"/>
<circle cx="111.564" cy="99.3105" r="19.9862" stroke="#323232" stroke-width="1.85918"/>
<path d="M75.7753 97.7739C81.7276 96.7146 85.2207 96.7337 91.5783 97.7739V101.634C85.5072 100.669 82.0455 100.655 75.7753 101.634V97.7739Z" fill="#242424"/>
<defs>
<pattern id="pattern0" patternContentUnits="objectBoundingBox" width="1" height="1">
<use xlink:href="#image0_36_462" transform="scale(0.00714286 0.00641026)"/>
</pattern>
</defs>
</svg>