<?xml version="1.0" encoding="utf-8"?>
<!-- Generator: Adobe Illustrator 23.0.3, SVG Export Plug-In . SVG Version: 6.00 Build 0)  -->
<svg version="1.1" id="text" xmlns="http://www.w3.org/2000/svg" xmlns:xlink="http://www.w3.org/1999/xlink" x="0px" y="0px"
	 viewBox="0 0 2027.7 364" style="enable-background:new 0 0 2027.7 364;" xml:space="preserve">
<style type="text/css">
	.st0{fill:#467FCF;}
	.st1{fill:#FFFFFF;}
	.st2{fill:none;}
	.st3{fill:#3E3A39;}
	.st4{font-family:'CourierNewPSMT';}
	.st5{font-size:250px;}
	.st6{font-size:180px;}
</style>
<g id="back">
	<circle class="st0" cx="182" cy="182" r="182"/>
</g>
<g id="Capa_1">
	<g>
		<g>
			<path class="st1" d="M175.7,269.9c4,1,8.3,1,12.3,0l85.8-21.4c5.6-1.4,9.6-6.5,9.6-12.3v-70.6l-54.3,15.5
				c-1.7,0.5-3.5,0.8-5.3,0.8c-6.7,0-13-3.6-16.4-9.3l-25.5-42.3l-25.4,42.3c-3.4,5.7-9.8,9.3-16.4,9.3c-1.8,0-3.6-0.2-5.3-0.8
				l-54.3-15.5v70.6c0,5.8,4,10.9,9.6,12.3L175.7,269.9z"/>
			<path class="st1" d="M287.6,96.7c-1.2-2.5-3.9-3.9-6.6-3.5l-99.1,12.6l36.3,60.3c1.5,2.5,4.5,3.7,7.3,2.9l78.4-22.4
				c3.9-1.1,5.8-5.5,4-9.2L287.6,96.7z"/>
			<path class="st1" d="M76.1,96.7l-20.4,40.7c-0.4,0.8-0.6,1.6-0.7,2.4v1.1c0.2,2.5,2,4.8,4.7,5.6l78.4,22.4
				c2.8,0.8,5.8-0.4,7.3-2.9l36.4-60.2L82.7,93.2C80,92.8,77.4,94.2,76.1,96.7z"/>
		</g>
	</g>
</g>
<rect id="text_2_" x="507.3" y="69.1" class="st2" width="2292.6" height="281.9"/>
<text transform="matrix(1 0 0 1 507.274 265.4623)" class="st3 st4 st5">Chain</text>
<text transform="matrix(1 0 0 1 1257.374 265.4623)" class="st3 st4 st6"> </text>
<text transform="matrix(1 0 0 1 1365.374 265.4623)" class="st3 st4 st5">Moe</text>
</svg>
