<?xml version="1.0" encoding="utf-8"?>
<!-- Generator: Adobe Illustrator 23.0.2, SVG Export Plug-In . SVG Version: 6.00 Build 0)  -->
<svg version="1.2" baseProfile="tiny" xmlns="http://www.w3.org/2000/svg" xmlns:xlink="http://www.w3.org/1999/xlink" x="0px"
	 y="0px" viewBox="0 0 364 364" xml:space="preserve">
<g id="back">
	<circle fill="#467FCF" cx="182" cy="182" r="182"/>
</g>
<g id="Capa_1">
	<g>
		<g>
			<path fill="#FFFFFF" d="M175.7,269.9c4,1,8.3,1,12.3,0l85.8-21.4c5.6-1.4,9.6-6.5,9.6-12.3v-70.6l-54.3,15.5
				c-1.7,0.5-3.5,0.8-5.3,0.8c-6.7,0-13-3.6-16.4-9.3l-25.5-42.3l-25.4,42.3c-3.4,5.7-9.8,9.3-16.4,9.3c-1.8,0-3.6-0.2-5.3-0.8
				l-54.3-15.5v70.6c0,5.8,4,10.9,9.6,12.3L175.7,269.9z"/>
			<path fill="#FFFFFF" d="M287.6,96.7c-1.2-2.5-3.9-3.9-6.6-3.5l-99.1,12.6l36.3,60.3c1.5,2.5,4.5,3.7,7.3,2.9l78.4-22.4
				c3.9-1.1,5.8-5.5,4-9.2L287.6,96.7z"/>
			<path fill="#FFFFFF" d="M76.1,96.7l-20.4,40.7c-0.4,0.8-0.6,1.6-0.7,2.4v1.1c0.2,2.5,2,4.8,4.7,5.6l78.4,22.4
				c2.8,0.8,5.8-0.4,7.3-2.9l36.4-60.2L82.7,93.2C80,92.8,77.4,94.2,76.1,96.7z"/>
		</g>
	</g>
</g>
<g id="图层_3">
</g>
</svg>
