<svg xmlns="http://www.w3.org/2000/svg" width="11111.111" height="5555.556" viewBox="0 0 8333.333 4166.667">
  <g data-name="Ebene 1">
    <path
      d="M3078.462 2643.925h-496.728l-270.222-723.77-270.217 723.77h-497.2L1131.68 1521.928h375.605l285.409 766.839 286.397-766.806 464.81-.011 278.326 764.128h13.514l275.62-764.128h381.01Z" />
    <clipPath id="a">
      <path transform="matrix(2.77778 0 0 -2.77778 0 4166.667)" d="M0 1500h3000V0H0Z" />
    </clipPath>
    <g clip-path="url(#a)">
      <path
        d="m7102.885 1526.857 21.317 60.225c2.816 7.967 14.089 7.958 16.897-.011l21.197-60.2a8.954 8.954 0 0 1 8.45-5.984h18.339a8.96 8.96 0 0 1 8.961 8.959v106.339c0 4.944-4.011 8.958-8.961 8.958h-7.75a8.959 8.959 0 0 1-8.958-8.958v-25.009l.01-.32c.44-10.244-13.883-13.074-17.374-3.435l-11.522 31.81a8.956 8.956 0 0 1-8.42 5.912h-4.964a8.96 8.96 0 0 1-8.425-5.911l-11.4-31.495c-3.491-9.647-17.825-6.808-17.375 3.44v25.008c0 4.944-4.01 8.958-8.96 8.958h-7.695c-4.95 0-8.961-4.014-8.961-8.958v-106.34a8.96 8.96 0 0 1 8.96-8.958h18.187a8.96 8.96 0 0 1 8.447 5.97m-59.244 14.77h-20.095a8.958 8.958 0 0 0-8.961 8.958v85.6c0 4.944-4.014 8.958-8.958 8.958h-7.698c-4.95 0-8.96-4.014-8.96-8.958v-85.6a8.957 8.957 0 0 0-8.959-8.959h-19.658a8.96 8.96 0 0 1-8.961-8.96v-2.82a8.96 8.96 0 0 1 8.96-8.959h83.29c4.947 0 8.96 4.012 8.96 8.959v2.82a8.962 8.962 0 0 1-8.96 8.96M4045.394 1525.079a8.968 8.968 0 0 1 6.817-3.148h475.752a8.958 8.958 0 0 1 6.82 3.15l741.03 838.74a8.959 8.959 0 0 0 12.52 1.1l345.128-284.529c4.33-3.575 4.35-10.202.039-13.794L4536.819 1152.74c-6.433-5.367-2.639-15.842 5.739-15.842h541.303a8.96 8.96 0 0 1 5.73 2.075l1792.717 1490.725c6.444 5.361 2.655 15.844-5.73 15.844h-541.223a8.946 8.946 0 0 1-5.778-2.11l-393.833-329.57a8.957 8.957 0 0 0-11.53-.02l-400.926 329.609a8.938 8.938 0 0 1-5.752 2.091h-476.617c-2.633 0-5.092-1.108-6.794-3.119-76.92-90.803-226.195-266.392-228.37-266.392h-780.933c-7.636 0-11.772-8.936-6.83-14.758l185.552-218.592a8.958 8.958 0 0 1 6.828-3.16h377.714c7.683 0 11.805-9.04 6.764-14.84l-291.05-334.833c-3.592-4.13-10.017-4.106-13.573.056L3233.291 3026.629a8.968 8.968 0 0 1-6.814 3.138h-457.73c-7.645 0-11.775-8.952-6.817-14.772l281.42-329.925Z" />
      <path
        d="m6313.622 1986.299-270.32-224.47c-4.269-3.577-4.269-10.141-.008-13.727l274.947-224.498c1.617-1.355 2.667-1.775 4.773-1.775l546.194.006c8.345 0 12.156 10.403 5.795 15.794l-549.834 448.64a8.963 8.963 0 0 1-11.547.03"
        fill="#f78e1e" />
    </g>
  </g>
</svg>