<svg id="text" xmlns="http://www.w3.org/2000/svg" viewBox="0 0 2799.9 364"><defs><style>.cls-1{fill:#467fcf;}.cls-2{fill:#fff;}.cls-3{fill:none;}.cls-4{isolation:isolate;}.cls-5{fill:#3e3a39;}</style></defs><title>logo-horizontally1</title><g id="back"><circle class="cls-1" cx="182" cy="182" r="182"/></g><g id="Capa_1" data-name="Capa 1"><path class="cls-2" d="M175.7,269.9a25.59,25.59,0,0,0,12.3,0l85.8-21.4a12.73,12.73,0,0,0,9.6-12.3V165.6l-54.3,15.5a18.9,18.9,0,0,1-5.3.8,19.22,19.22,0,0,1-16.4-9.3l-25.5-42.3-25.4,42.3a19.35,19.35,0,0,1-16.4,9.3,15.86,15.86,0,0,1-5.3-.8L80.5,165.6v70.6a12.73,12.73,0,0,0,9.6,12.3Z"/><path class="cls-2" d="M287.6,96.7a6.31,6.31,0,0,0-6.6-3.5l-99.1,12.6,36.3,60.3a6.46,6.46,0,0,0,7.3,2.9l78.4-22.4a6.53,6.53,0,0,0,4-9.2Z"/><path class="cls-2" d="M76.1,96.7,55.7,137.4a7.28,7.28,0,0,0-.7,2.4v1.1a6.48,6.48,0,0,0,4.7,5.6l78.4,22.4a6.46,6.46,0,0,0,7.3-2.9l36.4-60.2L82.7,93.2A6.38,6.38,0,0,0,76.1,96.7Z"/></g><rect id="text-2" data-name="text" class="cls-3" x="507.3" y="69.1" width="2292.6" height="281.9"/><g id="text-3" data-name="text" class="cls-4"><g class="cls-4"><path class="cls-5" d="M627.39,136.68v-7.2c0-2.45.47-4.19,1.4-5.25a5.16,5.16,0,0,1,7.45,0c.94,1.06,1.41,2.8,1.41,5.25v28.44q0,3.78-1.41,5.37a4.73,4.73,0,0,1-3.72,1.59,4.6,4.6,0,0,1-3.48-1.47,7.51,7.51,0,0,1-1.65-4.76q-.61-10.26-11.11-18.19a51.55,51.55,0,0,0-32.22-10.86,49.26,49.26,0,0,0-22.34,5.25,37.15,37.15,0,0,0-12.45,9.27,78.84,78.84,0,0,0-12.82,21.12A51.57,51.57,0,0,0,533,184.53v17.94q0,23,16.6,39.86t38.58,16.91a48.16,48.16,0,0,0,23.62-5.74q10.44-5.75,20.2-17.33a5.94,5.94,0,0,1,4.64-2.57,4.82,4.82,0,0,1,3.54,1.34,4.67,4.67,0,0,1,1.34,3.42c0,1.88-1.75,4.72-5.25,8.55a67.27,67.27,0,0,1-22.52,16.9,60.68,60.68,0,0,1-25.33,5.68,64.35,64.35,0,0,1-22.58-4.27,56.54,56.54,0,0,1-14.53-7.69q-5.73-4.39-14.1-14.83t-11.41-19.29a59.25,59.25,0,0,1-3.05-19.47V183.06q0-15.12,8.11-30.94a59.06,59.06,0,0,1,22.22-24.29,58.21,58.21,0,0,1,30.58-8.49A61.35,61.35,0,0,1,627.39,136.68Z"/><path class="cls-5" d="M698.56,112.26v63.11q9.77-10.62,18.74-15a45.54,45.54,0,0,1,20.08-4.33q12,0,20.32,4.21a35.73,35.73,0,0,1,14,12.94,33.44,33.44,0,0,1,5.61,18.37v63.6h11.48q3.78,0,5.31,1.4a4.85,4.85,0,0,1,1.52,3.72,4.9,4.9,0,0,1-1.52,3.67q-1.53,1.46-5.31,1.46H755.44q-3.78,0-5.37-1.46a4.79,4.79,0,0,1-1.59-3.67,4.73,4.73,0,0,1,1.59-3.72q1.59-1.4,5.37-1.4h11.48V192.34a24.31,24.31,0,0,0-8-18.55q-8-7.46-22.28-7.45-11.22,0-19.16,5.49-5.75,3.91-18.92,18.44v64.94h11.59q3.68,0,5.25,1.4a4.73,4.73,0,0,1,1.59,3.72A4.79,4.79,0,0,1,715.4,264q-1.57,1.46-5.25,1.46H676.71q-3.66,0-5.25-1.46a4.79,4.79,0,0,1-1.59-3.67,4.73,4.73,0,0,1,1.59-3.72q1.59-1.4,5.25-1.4H688.3V122.64H674.51q-3.66,0-5.25-1.46a4.92,4.92,0,0,1-1.59-3.79,4.78,4.78,0,0,1,1.59-3.66q1.59-1.47,5.25-1.47Z"/><path class="cls-5" d="M911.81,265.46V250.69q-22.34,18.8-47.72,18.8-18.44,0-28.81-9.34a29.6,29.6,0,0,1-10.38-22.89q0-14.88,13.67-26t39.92-11.11a141,141,0,0,1,15.38.92q8.29.92,17.94,2.87v-16.6q0-8.43-7.81-14.65t-23.44-6.23q-12,0-33.56,7a23.09,23.09,0,0,1-5,1.22,4.52,4.52,0,0,1-3.36-1.46,5.11,5.11,0,0,1-1.4-3.66,4.46,4.46,0,0,1,1.22-3.3q1.71-1.83,13.79-5,19.05-5.11,28.81-5.12,19.41,0,30.28,9.58t10.86,21.67v67.87h13.67c2.52,0,4.32.47,5.37,1.4a4.73,4.73,0,0,1,1.59,3.72,4.79,4.79,0,0,1-1.59,3.67c-1.05,1-2.85,1.46-5.37,1.46Zm0-51a97.53,97.53,0,0,0-15.25-3.06,141.37,141.37,0,0,0-17-1q-22.33,0-34.91,9.64-9.52,7.2-9.53,17.21a20,20,0,0,0,7.27,15.63q7.26,6.35,21.18,6.35a57.88,57.88,0,0,0,24.72-5.31q11.41-5.31,23.49-16.91Z"/><path class="cls-5" d="M1037.79,159.75v95.46h40.29q3.78,0,5.37,1.4a4.76,4.76,0,0,1,1.58,3.72,4.81,4.81,0,0,1-1.58,3.67q-1.59,1.46-5.37,1.46H987.25q-3.66,0-5.24-1.46a4.79,4.79,0,0,1-1.59-3.67,4.73,4.73,0,0,1,1.59-3.72q1.57-1.4,5.24-1.4h40.29V170.13H997.63q-3.66,0-5.31-1.47a4.7,4.7,0,0,1-1.65-3.66,4.92,4.92,0,0,1,1.59-3.79q1.59-1.46,5.37-1.46Zm-.36-52.61v26.49h-15.14V107.14Z"/><path class="cls-5" d="M1149.24,159.75v15.5q10.74-10.86,19.41-15a44.62,44.62,0,0,1,19.53-4.15,45.69,45.69,0,0,1,21.36,5q6.84,3.66,12.39,12.15a31.34,31.34,0,0,1,5.56,17.39v64.58h8.67q3.66,0,5.25,1.4a4.76,4.76,0,0,1,1.58,3.72,4.81,4.81,0,0,1-1.58,3.67q-1.59,1.46-5.25,1.46h-27.47q-3.78,0-5.37-1.46a4.79,4.79,0,0,1-1.59-3.67,4.73,4.73,0,0,1,1.59-3.72q1.59-1.4,5.37-1.4h8.55V192.34A24.33,24.33,0,0,0,1209.3,174q-7.93-7.5-21.24-7.51a36,36,0,0,0-17.58,4.09q-7.44,4.09-21.24,20.33v64.33h11.6q3.66,0,5.25,1.4a4.76,4.76,0,0,1,1.58,3.72,4.81,4.81,0,0,1-1.58,3.67q-1.59,1.46-5.25,1.46h-33.45q-3.66,0-5.25-1.46a4.78,4.78,0,0,1-1.58-3.67,4.72,4.72,0,0,1,1.58-3.72q1.59-1.4,5.25-1.4H1139V170.13h-8.67q-3.66,0-5.25-1.47a4.91,4.91,0,0,1-1.58-3.78,4.78,4.78,0,0,1,1.58-3.67q1.59-1.46,5.25-1.46Z"/></g><g class="cls-4"><path class="cls-5" d="M1447.16,222.62h-11.72L1396,132.89h-2V255.21H1413q3.66,0,5.25,1.4a4.73,4.73,0,0,1,1.59,3.72,4.79,4.79,0,0,1-1.59,3.67q-1.59,1.46-5.25,1.46h-37.84q-3.66,0-5.25-1.46a4.79,4.79,0,0,1-1.59-3.67,4.73,4.73,0,0,1,1.59-3.72q1.59-1.4,5.25-1.4h8.67V132.89h-6.47c-2.44,0-4.2-.46-5.25-1.4a5.16,5.16,0,0,1,0-7.45c1.05-.93,2.81-1.4,5.25-1.4h25.14L1441.3,211l38.21-88.38h25.15q3.78,0,5.37,1.4a5.18,5.18,0,0,1,0,7.45c-1.06.94-2.85,1.4-5.37,1.4h-6.35V255.21h8.54q3.8,0,5.37,1.4a4.73,4.73,0,0,1,1.59,3.72,4.79,4.79,0,0,1-1.59,3.67q-1.58,1.46-5.37,1.46h-37.72q-3.66,0-5.31-1.46a5,5,0,0,1-.06-7.39q1.59-1.4,5.37-1.4h18.92V132.89h-2.19Z"/><path class="cls-5" d="M1647.72,212.85q0,23.43-16.78,40a55.45,55.45,0,0,1-40.47,16.6q-23.92,0-40.65-16.66t-16.72-40q0-23.44,16.72-40.1t40.65-16.66a55.45,55.45,0,0,1,40.47,16.6A54.4,54.4,0,0,1,1647.72,212.85Zm-10.37,0A44.42,44.42,0,0,0,1623.61,180a47.52,47.52,0,0,0-66.52.06,45.89,45.89,0,0,0,0,65.49,47.36,47.36,0,0,0,66.52.07A44.48,44.48,0,0,0,1637.35,212.85Z"/><path class="cls-5" d="M1795.92,215.05h-104.5q2.68,19.89,16.67,32t34.6,12.15a83.18,83.18,0,0,0,24-3.79q12.57-3.78,20.51-10a6.94,6.94,0,0,1,4-1.83,4.6,4.6,0,0,1,3.42,1.53,5.06,5.06,0,0,1,1.46,3.6,5.74,5.74,0,0,1-2,4q-5.87,6.1-20.82,11.41a91.09,91.09,0,0,1-30.7,5.31q-26.36,0-44-17.27t-17.64-41.81q0-22.33,16.54-38.33t41-16q25.15,0,41.38,16.42T1795.92,215.05Zm-10.38-10.38a44.69,44.69,0,0,0-16-27.59q-13-10.62-31-10.62T1707.66,177q-12.95,10.5-16.11,27.71Z"/></g></g></svg>